<mxfile host="Electron" agent="Mozilla/5.0 (Windows NT 10.0; Win64; x64) AppleWebKit/537.36 (KHTML, like Gecko) draw.io/24.7.8 Chrome/128.0.6613.36 Electron/32.0.1 Safari/537.36" version="24.7.8">
  <diagram name="Page-1" id="52a04d89-c75d-2922-d76d-85b35f80e030">
    <mxGraphModel dx="3736" dy="1670" grid="1" gridSize="10" guides="1" tooltips="1" connect="1" arrows="1" fold="1" page="1" pageScale="1" pageWidth="1100" pageHeight="850" background="none" math="0" shadow="0">
      <root>
        <mxCell id="0" />
        <mxCell id="1" parent="0" />
        <mxCell id="vM2lw-Fl_1fQC05_8at0-52" style="edgeStyle=orthogonalEdgeStyle;shape=connector;curved=0;rounded=1;orthogonalLoop=1;jettySize=auto;html=1;strokeColor=default;align=center;verticalAlign=middle;fontFamily=Helvetica;fontSize=11;fontColor=default;labelBackgroundColor=default;endArrow=classic;fontStyle=1" parent="1" source="vM2lw-Fl_1fQC05_8at0-1" target="vM2lw-Fl_1fQC05_8at0-3" edge="1">
          <mxGeometry relative="1" as="geometry">
            <Array as="points">
              <mxPoint x="-1960" y="370" />
              <mxPoint x="-1720" y="370" />
            </Array>
          </mxGeometry>
        </mxCell>
        <mxCell id="vM2lw-Fl_1fQC05_8at0-53" value="Profile Data" style="edgeLabel;html=1;align=center;verticalAlign=middle;resizable=0;points=[];fontFamily=Helvetica;fontSize=11;fontColor=default;labelBackgroundColor=default;fontStyle=1" parent="vM2lw-Fl_1fQC05_8at0-52" vertex="1" connectable="0">
          <mxGeometry x="-0.3563" y="-1" relative="1" as="geometry">
            <mxPoint as="offset" />
          </mxGeometry>
        </mxCell>
        <mxCell id="vM2lw-Fl_1fQC05_8at0-54" style="edgeStyle=orthogonalEdgeStyle;shape=connector;curved=0;rounded=1;orthogonalLoop=1;jettySize=auto;html=1;strokeColor=default;align=center;verticalAlign=middle;fontFamily=Helvetica;fontSize=11;fontColor=default;labelBackgroundColor=default;endArrow=classic;fontStyle=1" parent="1" source="vM2lw-Fl_1fQC05_8at0-1" target="vM2lw-Fl_1fQC05_8at0-3" edge="1">
          <mxGeometry relative="1" as="geometry">
            <Array as="points">
              <mxPoint x="-1960" y="380" />
              <mxPoint x="-1720" y="380" />
            </Array>
          </mxGeometry>
        </mxCell>
        <mxCell id="vM2lw-Fl_1fQC05_8at0-55" value="Privacy Settings Confirmation" style="edgeLabel;html=1;align=center;verticalAlign=middle;resizable=0;points=[];fontFamily=Helvetica;fontSize=11;fontColor=default;labelBackgroundColor=default;fontStyle=1" parent="vM2lw-Fl_1fQC05_8at0-54" vertex="1" connectable="0">
          <mxGeometry x="-0.2691" y="-3" relative="1" as="geometry">
            <mxPoint as="offset" />
          </mxGeometry>
        </mxCell>
        <mxCell id="vM2lw-Fl_1fQC05_8at0-56" style="edgeStyle=orthogonalEdgeStyle;shape=connector;curved=0;rounded=1;orthogonalLoop=1;jettySize=auto;html=1;strokeColor=default;align=center;verticalAlign=middle;fontFamily=Helvetica;fontSize=11;fontColor=default;labelBackgroundColor=default;endArrow=classic;fontStyle=1" parent="1" source="vM2lw-Fl_1fQC05_8at0-1" target="vM2lw-Fl_1fQC05_8at0-3" edge="1">
          <mxGeometry relative="1" as="geometry">
            <Array as="points">
              <mxPoint x="-1960" y="400" />
              <mxPoint x="-1720" y="400" />
            </Array>
          </mxGeometry>
        </mxCell>
        <mxCell id="vM2lw-Fl_1fQC05_8at0-57" value="OTP" style="edgeLabel;html=1;align=center;verticalAlign=middle;resizable=0;points=[];fontFamily=Helvetica;fontSize=11;fontColor=default;labelBackgroundColor=default;fontStyle=1" parent="vM2lw-Fl_1fQC05_8at0-56" vertex="1" connectable="0">
          <mxGeometry x="-0.3385" y="1" relative="1" as="geometry">
            <mxPoint as="offset" />
          </mxGeometry>
        </mxCell>
        <mxCell id="njSY2W3RtdZkCtOm6_0E-3" style="edgeStyle=orthogonalEdgeStyle;rounded=0;orthogonalLoop=1;jettySize=auto;html=1;fontStyle=1" parent="1" source="vM2lw-Fl_1fQC05_8at0-1" target="vM2lw-Fl_1fQC05_8at0-13" edge="1">
          <mxGeometry relative="1" as="geometry">
            <Array as="points">
              <mxPoint x="-1960" y="670" />
              <mxPoint x="-1630" y="670" />
            </Array>
          </mxGeometry>
        </mxCell>
        <mxCell id="njSY2W3RtdZkCtOm6_0E-4" value="request to the SMS Gateway to send an OTP " style="edgeLabel;html=1;align=center;verticalAlign=middle;resizable=0;points=[];fontStyle=1" parent="njSY2W3RtdZkCtOm6_0E-3" vertex="1" connectable="0">
          <mxGeometry x="0.5328" y="4" relative="1" as="geometry">
            <mxPoint x="-121" as="offset" />
          </mxGeometry>
        </mxCell>
        <mxCell id="vM2lw-Fl_1fQC05_8at0-1" value="P1" style="swimlane;html=1;fontStyle=1;childLayout=stackLayout;horizontal=1;startSize=26;fillColor=#e0e0e0;horizontalStack=0;resizeParent=1;resizeLast=0;collapsible=1;marginBottom=0;swimlaneFillColor=#ffffff;align=center;rounded=1;shadow=0;comic=0;labelBackgroundColor=none;strokeWidth=1;fontFamily=Verdana;fontSize=12" parent="1" vertex="1">
          <mxGeometry x="-2030" y="560" width="140" height="52" as="geometry" />
        </mxCell>
        <mxCell id="vM2lw-Fl_1fQC05_8at0-2" value="Session Management" style="text;html=1;strokeColor=none;fillColor=none;spacingLeft=4;spacingRight=4;whiteSpace=wrap;overflow=hidden;rotatable=0;points=[[0,0.5],[1,0.5]];portConstraint=eastwest;align=center;fontStyle=1" parent="vM2lw-Fl_1fQC05_8at0-1" vertex="1">
          <mxGeometry y="26" width="140" height="26" as="geometry" />
        </mxCell>
        <mxCell id="vM2lw-Fl_1fQC05_8at0-48" style="edgeStyle=orthogonalEdgeStyle;shape=connector;curved=0;rounded=1;orthogonalLoop=1;jettySize=auto;html=1;strokeColor=default;align=center;verticalAlign=middle;fontFamily=Helvetica;fontSize=11;fontColor=default;labelBackgroundColor=default;endArrow=classic;fontStyle=1" parent="1" source="vM2lw-Fl_1fQC05_8at0-3" target="vM2lw-Fl_1fQC05_8at0-20" edge="1">
          <mxGeometry relative="1" as="geometry">
            <Array as="points">
              <mxPoint x="-1640" y="170" />
              <mxPoint x="-940" y="170" />
            </Array>
          </mxGeometry>
        </mxCell>
        <mxCell id="vM2lw-Fl_1fQC05_8at0-49" value="&lt;strong&gt;Block User Request&lt;/strong&gt;" style="edgeLabel;html=1;align=center;verticalAlign=middle;resizable=0;points=[];fontFamily=Helvetica;fontSize=11;fontColor=default;labelBackgroundColor=default;fontStyle=1" parent="vM2lw-Fl_1fQC05_8at0-48" vertex="1" connectable="0">
          <mxGeometry x="-0.2527" y="3" relative="1" as="geometry">
            <mxPoint y="-5" as="offset" />
          </mxGeometry>
        </mxCell>
        <mxCell id="vM2lw-Fl_1fQC05_8at0-3" value="&lt;span&gt;User &lt;/span&gt;" style="whiteSpace=wrap;html=1;rounded=0;shadow=0;comic=0;labelBackgroundColor=none;strokeWidth=1;fontFamily=Verdana;fontSize=12;align=center;fontStyle=1" parent="1" vertex="1">
          <mxGeometry x="-1730" y="22" width="120" height="50" as="geometry" />
        </mxCell>
        <mxCell id="njSY2W3RtdZkCtOm6_0E-51" style="edgeStyle=orthogonalEdgeStyle;shape=connector;curved=0;rounded=1;orthogonalLoop=1;jettySize=auto;html=1;strokeColor=default;align=center;verticalAlign=middle;fontFamily=Helvetica;fontSize=11;fontColor=default;labelBackgroundColor=default;startArrow=none;startFill=0;endArrow=classic;fontStyle=1" parent="1" source="vM2lw-Fl_1fQC05_8at0-5" target="vM2lw-Fl_1fQC05_8at0-22" edge="1">
          <mxGeometry relative="1" as="geometry">
            <Array as="points">
              <mxPoint x="-420" y="190" />
              <mxPoint x="-420" y="180" />
            </Array>
          </mxGeometry>
        </mxCell>
        <mxCell id="njSY2W3RtdZkCtOm6_0E-52" value="Read Session Information" style="edgeLabel;html=1;align=center;verticalAlign=middle;resizable=0;points=[];fontFamily=Helvetica;fontSize=11;fontColor=default;labelBackgroundColor=default;fontStyle=1" parent="njSY2W3RtdZkCtOm6_0E-51" vertex="1" connectable="0">
          <mxGeometry x="0.6168" y="-1" relative="1" as="geometry">
            <mxPoint x="39" y="-6" as="offset" />
          </mxGeometry>
        </mxCell>
        <mxCell id="vM2lw-Fl_1fQC05_8at0-5" value="&lt;span&gt;&lt;font style=&quot;font-size: 14px;&quot;&gt;D6:&amp;nbsp;&lt;/font&gt;&lt;/span&gt;&lt;div&gt;&lt;span&gt;&lt;font style=&quot;font-size: 14px;&quot;&gt;Session Data&lt;/font&gt;&lt;/span&gt;&lt;/div&gt;" style="html=1;rounded=0;shadow=0;comic=0;labelBackgroundColor=none;strokeWidth=2;fontFamily=Verdana;fontSize=12;align=center;shape=mxgraph.ios7ui.horLines;fontStyle=1" parent="1" vertex="1">
          <mxGeometry x="-370" y="165" width="135" height="50" as="geometry" />
        </mxCell>
        <mxCell id="njSY2W3RtdZkCtOm6_0E-27" style="edgeStyle=orthogonalEdgeStyle;shape=connector;curved=0;rounded=1;orthogonalLoop=1;jettySize=auto;html=1;strokeColor=default;align=center;verticalAlign=middle;fontFamily=Helvetica;fontSize=11;fontColor=default;labelBackgroundColor=default;startArrow=none;startFill=0;endArrow=classic;endFill=1;fontStyle=1" parent="1" source="vM2lw-Fl_1fQC05_8at0-6" target="vM2lw-Fl_1fQC05_8at0-16" edge="1">
          <mxGeometry relative="1" as="geometry">
            <Array as="points">
              <mxPoint x="-1360" y="580" />
            </Array>
          </mxGeometry>
        </mxCell>
        <mxCell id="njSY2W3RtdZkCtOm6_0E-28" value="Read User Information" style="edgeLabel;html=1;align=center;verticalAlign=middle;resizable=0;points=[];fontFamily=Helvetica;fontSize=11;fontColor=default;labelBackgroundColor=default;fontStyle=1" parent="njSY2W3RtdZkCtOm6_0E-27" vertex="1" connectable="0">
          <mxGeometry x="-0.134" relative="1" as="geometry">
            <mxPoint x="-21" y="-8" as="offset" />
          </mxGeometry>
        </mxCell>
        <mxCell id="njSY2W3RtdZkCtOm6_0E-37" style="edgeStyle=orthogonalEdgeStyle;shape=connector;curved=0;rounded=1;orthogonalLoop=1;jettySize=auto;html=1;strokeColor=default;align=center;verticalAlign=middle;fontFamily=Helvetica;fontSize=11;fontColor=default;labelBackgroundColor=default;startArrow=none;startFill=0;endArrow=classic;fontStyle=1" parent="1" source="vM2lw-Fl_1fQC05_8at0-6" target="vM2lw-Fl_1fQC05_8at0-18" edge="1">
          <mxGeometry relative="1" as="geometry">
            <Array as="points">
              <mxPoint x="-1080" y="560" />
            </Array>
          </mxGeometry>
        </mxCell>
        <mxCell id="njSY2W3RtdZkCtOm6_0E-38" value="&lt;strong&gt;Read User Information&lt;/strong&gt;" style="edgeLabel;html=1;align=center;verticalAlign=middle;resizable=0;points=[];fontFamily=Helvetica;fontSize=11;fontColor=default;labelBackgroundColor=default;fontStyle=1" parent="njSY2W3RtdZkCtOm6_0E-37" vertex="1" connectable="0">
          <mxGeometry x="0.0318" y="-3" relative="1" as="geometry">
            <mxPoint as="offset" />
          </mxGeometry>
        </mxCell>
        <mxCell id="njSY2W3RtdZkCtOm6_0E-49" style="edgeStyle=orthogonalEdgeStyle;shape=connector;curved=0;rounded=1;orthogonalLoop=1;jettySize=auto;html=1;strokeColor=default;align=center;verticalAlign=middle;fontFamily=Helvetica;fontSize=11;fontColor=default;labelBackgroundColor=default;startArrow=none;startFill=0;endArrow=classic;fontStyle=1" parent="1" source="vM2lw-Fl_1fQC05_8at0-6" target="vM2lw-Fl_1fQC05_8at0-22" edge="1">
          <mxGeometry relative="1" as="geometry">
            <Array as="points">
              <mxPoint x="-420" y="570" />
              <mxPoint x="-420" y="190" />
            </Array>
          </mxGeometry>
        </mxCell>
        <mxCell id="njSY2W3RtdZkCtOm6_0E-50" value="&lt;strong&gt;Read User Status&lt;/strong&gt;" style="edgeLabel;html=1;align=center;verticalAlign=middle;resizable=0;points=[];fontFamily=Helvetica;fontSize=11;fontColor=default;labelBackgroundColor=default;fontStyle=1" parent="njSY2W3RtdZkCtOm6_0E-49" vertex="1" connectable="0">
          <mxGeometry x="0.7928" y="-1" relative="1" as="geometry">
            <mxPoint as="offset" />
          </mxGeometry>
        </mxCell>
        <mxCell id="vM2lw-Fl_1fQC05_8at0-6" value="&lt;span&gt;&lt;span style=&quot;font-size:12.0pt;line-height:107%;&lt;br/&gt;font-family:&amp;quot;Times New Roman&amp;quot;,serif;mso-fareast-font-family:&amp;quot;Times New Roman&amp;quot;;&lt;br/&gt;mso-ansi-language:EN-US;mso-fareast-language:EN-US;mso-bidi-language:AR-SA&quot;&gt;D1:&lt;br&gt;User Data&lt;/span&gt;&lt;/span&gt;" style="html=1;rounded=0;shadow=0;comic=0;labelBackgroundColor=none;strokeWidth=2;fontFamily=Verdana;fontSize=12;align=center;shape=mxgraph.ios7ui.horLines;fontStyle=1" parent="1" vertex="1">
          <mxGeometry x="-370" y="560" width="135" height="50" as="geometry" />
        </mxCell>
        <mxCell id="njSY2W3RtdZkCtOm6_0E-59" style="edgeStyle=orthogonalEdgeStyle;shape=connector;curved=0;rounded=1;orthogonalLoop=1;jettySize=auto;html=1;strokeColor=default;align=center;verticalAlign=middle;fontFamily=Helvetica;fontSize=11;fontColor=default;labelBackgroundColor=default;startArrow=none;startFill=0;endArrow=classic;fontStyle=1" parent="1" source="vM2lw-Fl_1fQC05_8at0-7" target="vM2lw-Fl_1fQC05_8at0-22" edge="1">
          <mxGeometry relative="1" as="geometry">
            <Array as="points">
              <mxPoint x="-450" y="430" />
              <mxPoint x="-450" y="230" />
              <mxPoint x="-580" y="230" />
            </Array>
          </mxGeometry>
        </mxCell>
        <mxCell id="njSY2W3RtdZkCtOm6_0E-60" value="&lt;strong&gt;Message Status Changes&lt;/strong&gt;." style="edgeLabel;html=1;align=center;verticalAlign=middle;resizable=0;points=[];fontFamily=Helvetica;fontSize=11;fontColor=default;labelBackgroundColor=default;fontStyle=1" parent="njSY2W3RtdZkCtOm6_0E-59" vertex="1" connectable="0">
          <mxGeometry x="0.6305" y="-1" relative="1" as="geometry">
            <mxPoint x="6" y="-7" as="offset" />
          </mxGeometry>
        </mxCell>
        <mxCell id="njSY2W3RtdZkCtOm6_0E-61" style="edgeStyle=orthogonalEdgeStyle;shape=connector;curved=0;rounded=1;orthogonalLoop=1;jettySize=auto;html=1;strokeColor=default;align=center;verticalAlign=middle;fontFamily=Helvetica;fontSize=11;fontColor=default;labelBackgroundColor=default;startArrow=none;startFill=0;endArrow=classic;fontStyle=1" parent="1" source="vM2lw-Fl_1fQC05_8at0-7" target="vM2lw-Fl_1fQC05_8at0-23" edge="1">
          <mxGeometry relative="1" as="geometry">
            <Array as="points">
              <mxPoint x="-460" y="455" />
              <mxPoint x="-460" y="240" />
              <mxPoint x="-638" y="240" />
            </Array>
          </mxGeometry>
        </mxCell>
        <mxCell id="njSY2W3RtdZkCtOm6_0E-62" value="Chat Activity Events" style="edgeLabel;html=1;align=center;verticalAlign=middle;resizable=0;points=[];fontFamily=Helvetica;fontSize=11;fontColor=default;labelBackgroundColor=default;fontStyle=1" parent="njSY2W3RtdZkCtOm6_0E-61" vertex="1" connectable="0">
          <mxGeometry x="0.5619" y="-2" relative="1" as="geometry">
            <mxPoint as="offset" />
          </mxGeometry>
        </mxCell>
        <mxCell id="vM2lw-Fl_1fQC05_8at0-7" value="&lt;span&gt;&lt;span style=&quot;font-size:12.0pt;line-height:107%;&lt;br/&gt;font-family:&amp;quot;Times New Roman&amp;quot;,serif;mso-fareast-font-family:&amp;quot;Times New Roman&amp;quot;;&lt;br/&gt;mso-ansi-language:EN-US;mso-fareast-language:EN-US;mso-bidi-language:AR-SA&quot;&gt;D2:&lt;br&gt;Chat Data&lt;/span&gt;&lt;/span&gt;" style="html=1;rounded=0;shadow=0;comic=0;labelBackgroundColor=none;strokeWidth=2;fontFamily=Verdana;fontSize=12;align=center;shape=mxgraph.ios7ui.horLines;fontStyle=1" parent="1" vertex="1">
          <mxGeometry x="-370" y="430" width="135" height="50" as="geometry" />
        </mxCell>
        <mxCell id="njSY2W3RtdZkCtOm6_0E-53" style="edgeStyle=orthogonalEdgeStyle;shape=connector;curved=0;rounded=1;orthogonalLoop=1;jettySize=auto;html=1;strokeColor=default;align=center;verticalAlign=middle;fontFamily=Helvetica;fontSize=11;fontColor=default;labelBackgroundColor=default;startArrow=none;startFill=0;endArrow=classic;fontStyle=1" parent="1" source="vM2lw-Fl_1fQC05_8at0-8" target="vM2lw-Fl_1fQC05_8at0-22" edge="1">
          <mxGeometry relative="1" as="geometry">
            <Array as="points">
              <mxPoint x="-410" y="370" />
              <mxPoint x="-410" y="160" />
            </Array>
          </mxGeometry>
        </mxCell>
        <mxCell id="njSY2W3RtdZkCtOm6_0E-54" value="Read Message Status" style="edgeLabel;html=1;align=center;verticalAlign=middle;resizable=0;points=[];fontFamily=Helvetica;fontSize=11;fontColor=default;labelBackgroundColor=default;fontStyle=1" parent="njSY2W3RtdZkCtOm6_0E-53" vertex="1" connectable="0">
          <mxGeometry x="0.7234" y="3" relative="1" as="geometry">
            <mxPoint x="13" y="-4" as="offset" />
          </mxGeometry>
        </mxCell>
        <mxCell id="njSY2W3RtdZkCtOm6_0E-55" style="edgeStyle=orthogonalEdgeStyle;shape=connector;curved=0;rounded=1;orthogonalLoop=1;jettySize=auto;html=1;strokeColor=default;align=center;verticalAlign=middle;fontFamily=Helvetica;fontSize=11;fontColor=default;labelBackgroundColor=default;startArrow=none;startFill=0;endArrow=classic;fontStyle=1" parent="1" source="vM2lw-Fl_1fQC05_8at0-8" target="vM2lw-Fl_1fQC05_8at0-22" edge="1">
          <mxGeometry relative="1" as="geometry">
            <Array as="points">
              <mxPoint x="-400" y="360" />
              <mxPoint x="-400" y="150" />
            </Array>
          </mxGeometry>
        </mxCell>
        <mxCell id="njSY2W3RtdZkCtOm6_0E-56" value="New Message Events" style="edgeLabel;html=1;align=center;verticalAlign=middle;resizable=0;points=[];fontFamily=Helvetica;fontSize=11;fontColor=default;labelBackgroundColor=default;fontStyle=1" parent="njSY2W3RtdZkCtOm6_0E-55" vertex="1" connectable="0">
          <mxGeometry x="0.6651" y="-2" relative="1" as="geometry">
            <mxPoint as="offset" />
          </mxGeometry>
        </mxCell>
        <mxCell id="njSY2W3RtdZkCtOm6_0E-57" style="edgeStyle=orthogonalEdgeStyle;shape=connector;curved=0;rounded=1;orthogonalLoop=1;jettySize=auto;html=1;strokeColor=default;align=center;verticalAlign=middle;fontFamily=Helvetica;fontSize=11;fontColor=default;labelBackgroundColor=default;startArrow=none;startFill=0;endArrow=classic;fontStyle=1" parent="1" source="vM2lw-Fl_1fQC05_8at0-8" target="vM2lw-Fl_1fQC05_8at0-22" edge="1">
          <mxGeometry relative="1" as="geometry">
            <Array as="points">
              <mxPoint x="-390" y="382" />
              <mxPoint x="-390" y="140" />
            </Array>
          </mxGeometry>
        </mxCell>
        <mxCell id="njSY2W3RtdZkCtOm6_0E-58" value="&lt;strong&gt;Message Status Changes&lt;/strong&gt;." style="edgeLabel;html=1;align=center;verticalAlign=middle;resizable=0;points=[];fontFamily=Helvetica;fontSize=11;fontColor=default;labelBackgroundColor=default;fontStyle=1" parent="njSY2W3RtdZkCtOm6_0E-57" vertex="1" connectable="0">
          <mxGeometry x="0.4183" y="-1" relative="1" as="geometry">
            <mxPoint x="-50" y="-7" as="offset" />
          </mxGeometry>
        </mxCell>
        <mxCell id="vM2lw-Fl_1fQC05_8at0-8" value="&lt;span&gt;&lt;span style=&quot;font-size:12.0pt;line-height:107%;&lt;br/&gt;font-family:&amp;quot;Times New Roman&amp;quot;,serif;mso-fareast-font-family:&amp;quot;Times New Roman&amp;quot;;&lt;br/&gt;mso-ansi-language:EN-US;mso-fareast-language:EN-US;mso-bidi-language:AR-SA&quot;&gt;D3:&lt;br&gt;Message Data&lt;/span&gt;&lt;/span&gt;" style="html=1;rounded=0;shadow=0;comic=0;labelBackgroundColor=none;strokeWidth=2;fontFamily=Verdana;fontSize=12;align=center;shape=mxgraph.ios7ui.horLines;fontStyle=1" parent="1" vertex="1">
          <mxGeometry x="-370" y="357" width="135" height="50" as="geometry" />
        </mxCell>
        <mxCell id="vM2lw-Fl_1fQC05_8at0-9" value="&lt;span&gt;&lt;span style=&quot;font-size:12.0pt;line-height:107%;&lt;br/&gt;font-family:&amp;quot;Times New Roman&amp;quot;,serif;mso-fareast-font-family:&amp;quot;Times New Roman&amp;quot;;&lt;br/&gt;mso-ansi-language:EN-US;mso-fareast-language:EN-US;mso-bidi-language:AR-SA&quot;&gt;D4:&lt;br&gt;Media Metadata&lt;/span&gt;&lt;/span&gt;" style="html=1;rounded=0;shadow=0;comic=0;labelBackgroundColor=none;strokeWidth=2;fontFamily=Verdana;fontSize=12;align=center;shape=mxgraph.ios7ui.horLines;fontStyle=1" parent="1" vertex="1">
          <mxGeometry x="-370" y="290" width="135" height="50" as="geometry" />
        </mxCell>
        <mxCell id="vM2lw-Fl_1fQC05_8at0-10" value="&lt;span&gt;&lt;span style=&quot;font-size:12.0pt;line-height:107%;&lt;br/&gt;font-family:&amp;quot;Times New Roman&amp;quot;,serif;mso-fareast-font-family:&amp;quot;Times New Roman&amp;quot;;&lt;br/&gt;mso-ansi-language:EN-US;mso-fareast-language:EN-US;mso-bidi-language:AR-SA&quot;&gt;D5: Contact &amp;amp;&lt;/span&gt;&lt;/span&gt;&lt;div&gt;&lt;span&gt;&lt;span style=&quot;font-size:12.0pt;line-height:107%;&lt;br/&gt;font-family:&amp;quot;Times New Roman&amp;quot;,serif;mso-fareast-font-family:&amp;quot;Times New Roman&amp;quot;;&lt;br/&gt;mso-ansi-language:EN-US;mso-fareast-language:EN-US;mso-bidi-language:AR-SA&quot;&gt;&amp;nbsp;Block Data&lt;/span&gt;&lt;/span&gt;&lt;/div&gt;" style="html=1;rounded=0;shadow=0;comic=0;labelBackgroundColor=none;strokeWidth=2;fontFamily=Verdana;fontSize=12;align=center;shape=mxgraph.ios7ui.horLines;fontStyle=1" parent="1" vertex="1">
          <mxGeometry x="-370" y="227" width="135" height="50" as="geometry" />
        </mxCell>
        <mxCell id="vM2lw-Fl_1fQC05_8at0-11" value="&lt;span&gt;&lt;span style=&quot;font-size:12.0pt;line-height:107%;&lt;br/&gt;font-family:&amp;quot;Times New Roman&amp;quot;,serif;mso-fareast-font-family:&amp;quot;Times New Roman&amp;quot;;&lt;br/&gt;mso-ansi-language:EN-US;mso-fareast-language:EN-US;mso-bidi-language:AR-SA&quot;&gt;D6:&lt;br&gt;Session Data&lt;/span&gt;&lt;/span&gt;" style="html=1;rounded=0;shadow=0;comic=0;labelBackgroundColor=none;strokeWidth=2;fontFamily=Verdana;fontSize=12;align=center;shape=mxgraph.ios7ui.horLines;fontStyle=1" parent="1" vertex="1">
          <mxGeometry x="-370" y="492" width="135" height="50" as="geometry" />
        </mxCell>
        <mxCell id="njSY2W3RtdZkCtOm6_0E-11" style="edgeStyle=orthogonalEdgeStyle;shape=connector;curved=0;rounded=1;orthogonalLoop=1;jettySize=auto;html=1;strokeColor=default;align=center;verticalAlign=middle;fontFamily=Helvetica;fontSize=11;fontColor=default;labelBackgroundColor=default;endArrow=classic;fontStyle=1" parent="1" source="vM2lw-Fl_1fQC05_8at0-12" target="vM2lw-Fl_1fQC05_8at0-18" edge="1">
          <mxGeometry relative="1" as="geometry">
            <Array as="points">
              <mxPoint x="-1470" y="690" />
              <mxPoint x="-1110" y="690" />
            </Array>
          </mxGeometry>
        </mxCell>
        <mxCell id="njSY2W3RtdZkCtOm6_0E-12" value="Media Files" style="edgeLabel;html=1;align=center;verticalAlign=middle;resizable=0;points=[];fontFamily=Helvetica;fontSize=11;fontColor=default;labelBackgroundColor=default;fontStyle=1" parent="njSY2W3RtdZkCtOm6_0E-11" vertex="1" connectable="0">
          <mxGeometry x="0.0196" y="2" relative="1" as="geometry">
            <mxPoint x="1" as="offset" />
          </mxGeometry>
        </mxCell>
        <mxCell id="vM2lw-Fl_1fQC05_8at0-12" value="&lt;span&gt;Cloud/Media Storage&lt;/span&gt;" style="whiteSpace=wrap;html=1;rounded=0;shadow=0;comic=0;labelBackgroundColor=none;strokeWidth=1;fontFamily=Verdana;fontSize=12;align=center;fontStyle=1" parent="1" vertex="1">
          <mxGeometry x="-1530" y="770" width="120" height="50" as="geometry" />
        </mxCell>
        <mxCell id="njSY2W3RtdZkCtOm6_0E-1" style="edgeStyle=orthogonalEdgeStyle;rounded=1;orthogonalLoop=1;jettySize=auto;html=1;curved=0;fontStyle=1" parent="1" source="vM2lw-Fl_1fQC05_8at0-13" target="vM2lw-Fl_1fQC05_8at0-1" edge="1">
          <mxGeometry relative="1" as="geometry">
            <mxPoint x="-1800" y="470" as="targetPoint" />
            <Array as="points">
              <mxPoint x="-1650" y="690" />
              <mxPoint x="-1970" y="690" />
            </Array>
          </mxGeometry>
        </mxCell>
        <mxCell id="njSY2W3RtdZkCtOm6_0E-2" value="confirms OTP delivery status " style="edgeLabel;html=1;align=center;verticalAlign=middle;resizable=0;points=[];fontStyle=1" parent="njSY2W3RtdZkCtOm6_0E-1" vertex="1" connectable="0">
          <mxGeometry x="-0.4861" y="-4" relative="1" as="geometry">
            <mxPoint x="-80" as="offset" />
          </mxGeometry>
        </mxCell>
        <mxCell id="vM2lw-Fl_1fQC05_8at0-13" value="&lt;span&gt;SMS Gateway&lt;/span&gt;" style="whiteSpace=wrap;html=1;rounded=0;shadow=0;comic=0;labelBackgroundColor=none;strokeWidth=1;fontFamily=Verdana;fontSize=12;align=center;fontStyle=1" parent="1" vertex="1">
          <mxGeometry x="-1690" y="770" width="120" height="50" as="geometry" />
        </mxCell>
        <mxCell id="njSY2W3RtdZkCtOm6_0E-7" style="edgeStyle=orthogonalEdgeStyle;shape=connector;curved=0;rounded=1;orthogonalLoop=1;jettySize=auto;html=1;strokeColor=default;align=center;verticalAlign=middle;fontFamily=Helvetica;fontSize=11;fontColor=default;labelBackgroundColor=default;endArrow=classic;fontStyle=1" parent="1" source="vM2lw-Fl_1fQC05_8at0-14" target="vM2lw-Fl_1fQC05_8at0-22" edge="1">
          <mxGeometry relative="1" as="geometry">
            <Array as="points">
              <mxPoint x="-910" y="720" />
              <mxPoint x="-610" y="720" />
            </Array>
          </mxGeometry>
        </mxCell>
        <mxCell id="njSY2W3RtdZkCtOm6_0E-8" value=" feedback on delivery " style="edgeLabel;html=1;align=center;verticalAlign=middle;resizable=0;points=[];fontFamily=Helvetica;fontSize=11;fontColor=default;labelBackgroundColor=default;fontStyle=1" parent="njSY2W3RtdZkCtOm6_0E-7" vertex="1" connectable="0">
          <mxGeometry x="-0.2857" y="2" relative="1" as="geometry">
            <mxPoint x="-90" as="offset" />
          </mxGeometry>
        </mxCell>
        <mxCell id="vM2lw-Fl_1fQC05_8at0-14" value="&lt;span&gt;Push Notification Service&amp;nbsp;&lt;/span&gt;" style="whiteSpace=wrap;html=1;rounded=0;shadow=0;comic=0;labelBackgroundColor=none;strokeWidth=1;fontFamily=Verdana;fontSize=12;align=center;fontStyle=1" parent="1" vertex="1">
          <mxGeometry x="-970" y="760" width="120" height="50" as="geometry" />
        </mxCell>
        <mxCell id="vM2lw-Fl_1fQC05_8at0-62" style="edgeStyle=orthogonalEdgeStyle;shape=connector;curved=0;rounded=1;orthogonalLoop=1;jettySize=auto;html=1;strokeColor=default;align=center;verticalAlign=middle;fontFamily=Helvetica;fontSize=11;fontColor=default;labelBackgroundColor=default;endArrow=classic;fontStyle=1" parent="1" source="vM2lw-Fl_1fQC05_8at0-16" target="vM2lw-Fl_1fQC05_8at0-3" edge="1">
          <mxGeometry relative="1" as="geometry">
            <Array as="points">
              <mxPoint x="-1410" y="330" />
              <mxPoint x="-1690" y="330" />
            </Array>
          </mxGeometry>
        </mxCell>
        <mxCell id="vM2lw-Fl_1fQC05_8at0-63" value="Participant Updates" style="edgeLabel;html=1;align=center;verticalAlign=middle;resizable=0;points=[];fontFamily=Helvetica;fontSize=11;fontColor=default;labelBackgroundColor=default;fontStyle=1" parent="vM2lw-Fl_1fQC05_8at0-62" vertex="1" connectable="0">
          <mxGeometry x="0.0159" relative="1" as="geometry">
            <mxPoint x="18" y="-7" as="offset" />
          </mxGeometry>
        </mxCell>
        <mxCell id="vM2lw-Fl_1fQC05_8at0-64" style="edgeStyle=orthogonalEdgeStyle;shape=connector;curved=0;rounded=1;orthogonalLoop=1;jettySize=auto;html=1;strokeColor=default;align=center;verticalAlign=middle;fontFamily=Helvetica;fontSize=11;fontColor=default;labelBackgroundColor=default;endArrow=classic;fontStyle=1" parent="1" source="vM2lw-Fl_1fQC05_8at0-16" target="vM2lw-Fl_1fQC05_8at0-3" edge="1">
          <mxGeometry relative="1" as="geometry">
            <Array as="points">
              <mxPoint x="-1410" y="310" />
              <mxPoint x="-1690" y="310" />
            </Array>
          </mxGeometry>
        </mxCell>
        <mxCell id="vM2lw-Fl_1fQC05_8at0-65" value="Chat Details" style="edgeLabel;html=1;align=center;verticalAlign=middle;resizable=0;points=[];fontFamily=Helvetica;fontSize=11;fontColor=default;labelBackgroundColor=default;fontStyle=1" parent="vM2lw-Fl_1fQC05_8at0-64" vertex="1" connectable="0">
          <mxGeometry x="0.0173" y="-2" relative="1" as="geometry">
            <mxPoint as="offset" />
          </mxGeometry>
        </mxCell>
        <mxCell id="njSY2W3RtdZkCtOm6_0E-25" style="edgeStyle=orthogonalEdgeStyle;shape=connector;curved=0;rounded=1;orthogonalLoop=1;jettySize=auto;html=1;strokeColor=default;align=center;verticalAlign=middle;fontFamily=Helvetica;fontSize=11;fontColor=default;labelBackgroundColor=default;startArrow=classic;startFill=1;endArrow=classic;fontStyle=1" parent="1" source="vM2lw-Fl_1fQC05_8at0-16" target="vM2lw-Fl_1fQC05_8at0-7" edge="1">
          <mxGeometry relative="1" as="geometry">
            <Array as="points">
              <mxPoint x="-940" y="486" />
              <mxPoint x="-940" y="460" />
            </Array>
          </mxGeometry>
        </mxCell>
        <mxCell id="njSY2W3RtdZkCtOm6_0E-26" value="&lt;strong&gt;Read/Write Chat Participant Records&lt;/strong&gt;" style="edgeLabel;html=1;align=center;verticalAlign=middle;resizable=0;points=[];fontFamily=Helvetica;fontSize=11;fontColor=default;labelBackgroundColor=default;fontStyle=1" parent="njSY2W3RtdZkCtOm6_0E-25" vertex="1" connectable="0">
          <mxGeometry x="0.0738" y="2" relative="1" as="geometry">
            <mxPoint as="offset" />
          </mxGeometry>
        </mxCell>
        <mxCell id="vM2lw-Fl_1fQC05_8at0-16" value="P2" style="swimlane;html=1;fontStyle=1;childLayout=stackLayout;horizontal=1;startSize=26;fillColor=#e0e0e0;horizontalStack=0;resizeParent=1;resizeLast=0;collapsible=1;marginBottom=0;swimlaneFillColor=#ffffff;align=center;rounded=1;shadow=0;comic=0;labelBackgroundColor=none;strokeWidth=1;fontFamily=Verdana;fontSize=12" parent="1" vertex="1">
          <mxGeometry x="-1430" y="460" width="140" height="52" as="geometry" />
        </mxCell>
        <mxCell id="vM2lw-Fl_1fQC05_8at0-17" value="Channel Management" style="text;html=1;strokeColor=none;fillColor=none;spacingLeft=4;spacingRight=4;whiteSpace=wrap;overflow=hidden;rotatable=0;points=[[0,0.5],[1,0.5]];portConstraint=eastwest;align=center;fontStyle=1" parent="vM2lw-Fl_1fQC05_8at0-16" vertex="1">
          <mxGeometry y="26" width="140" height="26" as="geometry" />
        </mxCell>
        <mxCell id="vM2lw-Fl_1fQC05_8at0-68" style="edgeStyle=orthogonalEdgeStyle;shape=connector;curved=0;rounded=1;orthogonalLoop=1;jettySize=auto;html=1;strokeColor=default;align=center;verticalAlign=middle;fontFamily=Helvetica;fontSize=11;fontColor=default;labelBackgroundColor=default;endArrow=classic;fontStyle=1" parent="1" source="vM2lw-Fl_1fQC05_8at0-18" target="vM2lw-Fl_1fQC05_8at0-3" edge="1">
          <mxGeometry relative="1" as="geometry">
            <Array as="points">
              <mxPoint x="-1170" y="240" />
              <mxPoint x="-1660" y="240" />
            </Array>
          </mxGeometry>
        </mxCell>
        <mxCell id="vM2lw-Fl_1fQC05_8at0-69" value="&lt;strong&gt;Media Content&lt;/strong&gt; (for download)" style="edgeLabel;html=1;align=center;verticalAlign=middle;resizable=0;points=[];fontFamily=Helvetica;fontSize=11;fontColor=default;labelBackgroundColor=default;fontStyle=1" parent="vM2lw-Fl_1fQC05_8at0-68" vertex="1" connectable="0">
          <mxGeometry x="0.183" y="-1" relative="1" as="geometry">
            <mxPoint as="offset" />
          </mxGeometry>
        </mxCell>
        <mxCell id="vM2lw-Fl_1fQC05_8at0-70" style="edgeStyle=orthogonalEdgeStyle;shape=connector;curved=0;rounded=1;orthogonalLoop=1;jettySize=auto;html=1;strokeColor=default;align=center;verticalAlign=middle;fontFamily=Helvetica;fontSize=11;fontColor=default;labelBackgroundColor=default;endArrow=classic;fontStyle=1" parent="1" source="vM2lw-Fl_1fQC05_8at0-18" target="vM2lw-Fl_1fQC05_8at0-3" edge="1">
          <mxGeometry relative="1" as="geometry">
            <Array as="points">
              <mxPoint x="-1170" y="220" />
              <mxPoint x="-1660" y="220" />
            </Array>
          </mxGeometry>
        </mxCell>
        <mxCell id="vM2lw-Fl_1fQC05_8at0-71" value="&lt;strong&gt;Message Status&lt;/strong&gt; (delivered/read)" style="edgeLabel;html=1;align=center;verticalAlign=middle;resizable=0;points=[];fontFamily=Helvetica;fontSize=11;fontColor=default;labelBackgroundColor=default;fontStyle=1" parent="vM2lw-Fl_1fQC05_8at0-70" vertex="1" connectable="0">
          <mxGeometry x="0.2102" y="2" relative="1" as="geometry">
            <mxPoint as="offset" />
          </mxGeometry>
        </mxCell>
        <mxCell id="vM2lw-Fl_1fQC05_8at0-72" style="edgeStyle=orthogonalEdgeStyle;shape=connector;curved=0;rounded=1;orthogonalLoop=1;jettySize=auto;html=1;strokeColor=default;align=center;verticalAlign=middle;fontFamily=Helvetica;fontSize=11;fontColor=default;labelBackgroundColor=default;endArrow=classic;fontStyle=1" parent="1" source="vM2lw-Fl_1fQC05_8at0-18" target="vM2lw-Fl_1fQC05_8at0-3" edge="1">
          <mxGeometry relative="1" as="geometry">
            <Array as="points">
              <mxPoint x="-1170" y="210" />
              <mxPoint x="-1660" y="210" />
            </Array>
          </mxGeometry>
        </mxCell>
        <mxCell id="vM2lw-Fl_1fQC05_8at0-73" value="Typing Indicators" style="edgeLabel;html=1;align=center;verticalAlign=middle;resizable=0;points=[];fontFamily=Helvetica;fontSize=11;fontColor=default;labelBackgroundColor=default;fontStyle=1" parent="vM2lw-Fl_1fQC05_8at0-72" vertex="1" connectable="0">
          <mxGeometry x="0.1699" y="2" relative="1" as="geometry">
            <mxPoint as="offset" />
          </mxGeometry>
        </mxCell>
        <mxCell id="vM2lw-Fl_1fQC05_8at0-74" style="edgeStyle=orthogonalEdgeStyle;shape=connector;curved=0;rounded=1;orthogonalLoop=1;jettySize=auto;html=1;strokeColor=default;align=center;verticalAlign=middle;fontFamily=Helvetica;fontSize=11;fontColor=default;labelBackgroundColor=default;endArrow=classic;fontStyle=1" parent="1" source="vM2lw-Fl_1fQC05_8at0-18" target="vM2lw-Fl_1fQC05_8at0-3" edge="1">
          <mxGeometry relative="1" as="geometry">
            <Array as="points">
              <mxPoint x="-1170" y="200" />
              <mxPoint x="-1660" y="200" />
            </Array>
          </mxGeometry>
        </mxCell>
        <mxCell id="vM2lw-Fl_1fQC05_8at0-75" value="View Counts" style="edgeLabel;html=1;align=center;verticalAlign=middle;resizable=0;points=[];fontFamily=Helvetica;fontSize=11;fontColor=default;labelBackgroundColor=default;fontStyle=1" parent="vM2lw-Fl_1fQC05_8at0-74" vertex="1" connectable="0">
          <mxGeometry x="0.1596" relative="1" as="geometry">
            <mxPoint as="offset" />
          </mxGeometry>
        </mxCell>
        <mxCell id="njSY2W3RtdZkCtOm6_0E-29" style="edgeStyle=orthogonalEdgeStyle;shape=connector;curved=0;rounded=1;orthogonalLoop=1;jettySize=auto;html=1;strokeColor=default;align=center;verticalAlign=middle;fontFamily=Helvetica;fontSize=11;fontColor=default;labelBackgroundColor=default;startArrow=classic;startFill=1;endArrow=classic;fontStyle=1" parent="1" source="vM2lw-Fl_1fQC05_8at0-18" target="vM2lw-Fl_1fQC05_8at0-8" edge="1">
          <mxGeometry relative="1" as="geometry" />
        </mxCell>
        <mxCell id="njSY2W3RtdZkCtOm6_0E-30" value="Read/Write Message Content" style="edgeLabel;html=1;align=center;verticalAlign=middle;resizable=0;points=[];fontFamily=Helvetica;fontSize=11;fontColor=default;labelBackgroundColor=default;fontStyle=1" parent="njSY2W3RtdZkCtOm6_0E-29" vertex="1" connectable="0">
          <mxGeometry x="-0.3165" y="3" relative="1" as="geometry">
            <mxPoint as="offset" />
          </mxGeometry>
        </mxCell>
        <mxCell id="njSY2W3RtdZkCtOm6_0E-33" style="edgeStyle=orthogonalEdgeStyle;shape=connector;curved=0;rounded=1;orthogonalLoop=1;jettySize=auto;html=1;strokeColor=default;align=center;verticalAlign=middle;fontFamily=Helvetica;fontSize=11;fontColor=default;labelBackgroundColor=default;startArrow=classic;startFill=1;endArrow=classic;fontStyle=1" parent="1" source="vM2lw-Fl_1fQC05_8at0-18" target="vM2lw-Fl_1fQC05_8at0-9" edge="1">
          <mxGeometry relative="1" as="geometry">
            <Array as="points">
              <mxPoint x="-940" y="370" />
              <mxPoint x="-940" y="315" />
            </Array>
          </mxGeometry>
        </mxCell>
        <mxCell id="njSY2W3RtdZkCtOm6_0E-34" value="Read/Write Media Metadata" style="edgeLabel;html=1;align=center;verticalAlign=middle;resizable=0;points=[];fontFamily=Helvetica;fontSize=11;fontColor=default;labelBackgroundColor=default;fontStyle=1" parent="njSY2W3RtdZkCtOm6_0E-33" vertex="1" connectable="0">
          <mxGeometry x="-0.2373" y="-1" relative="1" as="geometry">
            <mxPoint as="offset" />
          </mxGeometry>
        </mxCell>
        <mxCell id="njSY2W3RtdZkCtOm6_0E-35" style="edgeStyle=orthogonalEdgeStyle;shape=connector;curved=0;rounded=1;orthogonalLoop=1;jettySize=auto;html=1;strokeColor=default;align=center;verticalAlign=middle;fontFamily=Helvetica;fontSize=11;fontColor=default;labelBackgroundColor=default;startArrow=classic;startFill=1;endArrow=none;endFill=0;fontStyle=1" parent="1" source="vM2lw-Fl_1fQC05_8at0-18" target="vM2lw-Fl_1fQC05_8at0-7" edge="1">
          <mxGeometry relative="1" as="geometry">
            <Array as="points">
              <mxPoint x="-940" y="400" />
              <mxPoint x="-940" y="440" />
            </Array>
          </mxGeometry>
        </mxCell>
        <mxCell id="njSY2W3RtdZkCtOm6_0E-36" value="Read Chat Information" style="edgeLabel;html=1;align=center;verticalAlign=middle;resizable=0;points=[];fontFamily=Helvetica;fontSize=11;fontColor=default;labelBackgroundColor=default;fontStyle=1" parent="njSY2W3RtdZkCtOm6_0E-35" vertex="1" connectable="0">
          <mxGeometry x="-0.1824" relative="1" as="geometry">
            <mxPoint as="offset" />
          </mxGeometry>
        </mxCell>
        <mxCell id="vM2lw-Fl_1fQC05_8at0-18" value="P3" style="swimlane;html=1;fontStyle=1;childLayout=stackLayout;horizontal=1;startSize=26;fillColor=#e0e0e0;horizontalStack=0;resizeParent=1;resizeLast=0;collapsible=1;marginBottom=0;swimlaneFillColor=#ffffff;align=center;rounded=1;shadow=0;comic=0;labelBackgroundColor=none;strokeWidth=1;fontFamily=Verdana;fontSize=12" parent="1" vertex="1">
          <mxGeometry x="-1190" y="350" width="140" height="52" as="geometry" />
        </mxCell>
        <mxCell id="vM2lw-Fl_1fQC05_8at0-19" value=" Media Handling" style="text;html=1;strokeColor=none;fillColor=none;spacingLeft=4;spacingRight=4;whiteSpace=wrap;overflow=hidden;rotatable=0;points=[[0,0.5],[1,0.5]];portConstraint=eastwest;align=center;fontStyle=1" parent="vM2lw-Fl_1fQC05_8at0-18" vertex="1">
          <mxGeometry y="26" width="140" height="26" as="geometry" />
        </mxCell>
        <mxCell id="vM2lw-Fl_1fQC05_8at0-76" style="edgeStyle=orthogonalEdgeStyle;shape=connector;curved=0;rounded=1;orthogonalLoop=1;jettySize=auto;html=1;strokeColor=default;align=center;verticalAlign=middle;fontFamily=Helvetica;fontSize=11;fontColor=default;labelBackgroundColor=default;endArrow=classic;fontStyle=1" parent="1" source="vM2lw-Fl_1fQC05_8at0-20" target="vM2lw-Fl_1fQC05_8at0-3" edge="1">
          <mxGeometry relative="1" as="geometry">
            <Array as="points">
              <mxPoint x="-920" y="130" />
              <mxPoint x="-1630" y="130" />
            </Array>
          </mxGeometry>
        </mxCell>
        <mxCell id="vM2lw-Fl_1fQC05_8at0-77" value="Contact List" style="edgeLabel;html=1;align=center;verticalAlign=middle;resizable=0;points=[];fontFamily=Helvetica;fontSize=11;fontColor=default;labelBackgroundColor=default;fontStyle=1" parent="vM2lw-Fl_1fQC05_8at0-76" vertex="1" connectable="0">
          <mxGeometry x="0.2578" y="-3" relative="1" as="geometry">
            <mxPoint as="offset" />
          </mxGeometry>
        </mxCell>
        <mxCell id="vM2lw-Fl_1fQC05_8at0-78" style="edgeStyle=orthogonalEdgeStyle;shape=connector;curved=0;rounded=1;orthogonalLoop=1;jettySize=auto;html=1;strokeColor=default;align=center;verticalAlign=middle;fontFamily=Helvetica;fontSize=11;fontColor=default;labelBackgroundColor=default;endArrow=classic;fontStyle=1" parent="1" source="vM2lw-Fl_1fQC05_8at0-20" target="vM2lw-Fl_1fQC05_8at0-3" edge="1">
          <mxGeometry relative="1" as="geometry">
            <Array as="points">
              <mxPoint x="-920" y="150" />
              <mxPoint x="-1630" y="150" />
            </Array>
          </mxGeometry>
        </mxCell>
        <mxCell id="vM2lw-Fl_1fQC05_8at0-79" value="Block Confirmation" style="edgeLabel;html=1;align=center;verticalAlign=middle;resizable=0;points=[];fontFamily=Helvetica;fontSize=11;fontColor=default;labelBackgroundColor=default;fontStyle=1" parent="vM2lw-Fl_1fQC05_8at0-78" vertex="1" connectable="0">
          <mxGeometry x="0.2345" y="2" relative="1" as="geometry">
            <mxPoint y="-10" as="offset" />
          </mxGeometry>
        </mxCell>
        <mxCell id="njSY2W3RtdZkCtOm6_0E-42" style="edgeStyle=orthogonalEdgeStyle;shape=connector;curved=0;rounded=1;orthogonalLoop=1;jettySize=auto;html=1;strokeColor=default;align=center;verticalAlign=middle;fontFamily=Helvetica;fontSize=11;fontColor=default;labelBackgroundColor=default;startArrow=classic;startFill=1;endArrow=classic;fontStyle=1" parent="1" source="vM2lw-Fl_1fQC05_8at0-20" target="vM2lw-Fl_1fQC05_8at0-10" edge="1">
          <mxGeometry relative="1" as="geometry">
            <Array as="points">
              <mxPoint x="-470" y="260" />
              <mxPoint x="-470" y="260" />
            </Array>
          </mxGeometry>
        </mxCell>
        <mxCell id="njSY2W3RtdZkCtOm6_0E-43" value="Read/Write Blocked Users" style="edgeLabel;html=1;align=center;verticalAlign=middle;resizable=0;points=[];fontFamily=Helvetica;fontSize=11;fontColor=default;labelBackgroundColor=default;fontStyle=1" parent="njSY2W3RtdZkCtOm6_0E-42" vertex="1" connectable="0">
          <mxGeometry x="-0.6831" y="3" relative="1" as="geometry">
            <mxPoint as="offset" />
          </mxGeometry>
        </mxCell>
        <mxCell id="njSY2W3RtdZkCtOm6_0E-45" style="edgeStyle=orthogonalEdgeStyle;shape=connector;curved=0;rounded=1;orthogonalLoop=1;jettySize=auto;html=1;strokeColor=default;align=center;verticalAlign=middle;fontFamily=Helvetica;fontSize=11;fontColor=default;labelBackgroundColor=default;startArrow=classic;startFill=1;endArrow=none;endFill=0;fontStyle=1" parent="1" source="vM2lw-Fl_1fQC05_8at0-20" target="vM2lw-Fl_1fQC05_8at0-6" edge="1">
          <mxGeometry relative="1" as="geometry">
            <Array as="points">
              <mxPoint x="-440" y="250" />
              <mxPoint x="-440" y="600" />
            </Array>
          </mxGeometry>
        </mxCell>
        <mxCell id="njSY2W3RtdZkCtOm6_0E-46" value="Read User Information" style="edgeLabel;html=1;align=center;verticalAlign=middle;resizable=0;points=[];fontFamily=Helvetica;fontSize=11;fontColor=default;labelBackgroundColor=default;fontStyle=1" parent="njSY2W3RtdZkCtOm6_0E-45" vertex="1" connectable="0">
          <mxGeometry x="-0.6731" y="-2" relative="1" as="geometry">
            <mxPoint x="-27" y="-12" as="offset" />
          </mxGeometry>
        </mxCell>
        <mxCell id="vM2lw-Fl_1fQC05_8at0-20" value="P4" style="swimlane;html=1;fontStyle=1;childLayout=stackLayout;horizontal=1;startSize=26;fillColor=#e0e0e0;horizontalStack=0;resizeParent=1;resizeLast=0;collapsible=1;marginBottom=0;swimlaneFillColor=#ffffff;align=center;rounded=1;shadow=0;comic=0;labelBackgroundColor=none;strokeWidth=1;fontFamily=Verdana;fontSize=12" parent="1" vertex="1">
          <mxGeometry x="-950" y="229" width="140" height="52" as="geometry" />
        </mxCell>
        <mxCell id="vM2lw-Fl_1fQC05_8at0-21" value=" Blocking Management" style="text;html=1;strokeColor=none;fillColor=none;spacingLeft=4;spacingRight=4;whiteSpace=wrap;overflow=hidden;rotatable=0;points=[[0,0.5],[1,0.5]];portConstraint=eastwest;align=center;fontStyle=1" parent="vM2lw-Fl_1fQC05_8at0-20" vertex="1">
          <mxGeometry y="26" width="140" height="26" as="geometry" />
        </mxCell>
        <mxCell id="vM2lw-Fl_1fQC05_8at0-80" style="edgeStyle=orthogonalEdgeStyle;shape=connector;curved=0;rounded=1;orthogonalLoop=1;jettySize=auto;html=1;entryX=1;entryY=1;entryDx=0;entryDy=0;strokeColor=default;align=center;verticalAlign=middle;fontFamily=Helvetica;fontSize=11;fontColor=default;labelBackgroundColor=default;endArrow=classic;fontStyle=1" parent="1" source="vM2lw-Fl_1fQC05_8at0-22" target="vM2lw-Fl_1fQC05_8at0-3" edge="1">
          <mxGeometry relative="1" as="geometry">
            <Array as="points">
              <mxPoint x="-660" y="110" />
              <mxPoint x="-1610" y="110" />
            </Array>
          </mxGeometry>
        </mxCell>
        <mxCell id="vM2lw-Fl_1fQC05_8at0-81" value="&lt;strong&gt;Notifications&lt;/strong&gt; (in-app alerts)" style="edgeLabel;html=1;align=center;verticalAlign=middle;resizable=0;points=[];fontFamily=Helvetica;fontSize=11;fontColor=default;labelBackgroundColor=default;fontStyle=1" parent="vM2lw-Fl_1fQC05_8at0-80" vertex="1" connectable="0">
          <mxGeometry x="0.344" y="-2" relative="1" as="geometry">
            <mxPoint as="offset" />
          </mxGeometry>
        </mxCell>
        <mxCell id="vM2lw-Fl_1fQC05_8at0-82" style="edgeStyle=orthogonalEdgeStyle;shape=connector;curved=0;rounded=1;orthogonalLoop=1;jettySize=auto;html=1;strokeColor=default;align=center;verticalAlign=middle;fontFamily=Helvetica;fontSize=11;fontColor=default;labelBackgroundColor=default;endArrow=classic;fontStyle=1" parent="1" source="vM2lw-Fl_1fQC05_8at0-22" target="vM2lw-Fl_1fQC05_8at0-3" edge="1">
          <mxGeometry relative="1" as="geometry">
            <Array as="points">
              <mxPoint x="-660" y="100" />
              <mxPoint x="-1610" y="100" />
            </Array>
          </mxGeometry>
        </mxCell>
        <mxCell id="vM2lw-Fl_1fQC05_8at0-83" value="Online Status" style="edgeLabel;html=1;align=center;verticalAlign=middle;resizable=0;points=[];fontFamily=Helvetica;fontSize=11;fontColor=default;labelBackgroundColor=default;fontStyle=1" parent="vM2lw-Fl_1fQC05_8at0-82" vertex="1" connectable="0">
          <mxGeometry x="0.1782" relative="1" as="geometry">
            <mxPoint as="offset" />
          </mxGeometry>
        </mxCell>
        <mxCell id="vM2lw-Fl_1fQC05_8at0-84" style="edgeStyle=orthogonalEdgeStyle;shape=connector;curved=0;rounded=1;orthogonalLoop=1;jettySize=auto;html=1;strokeColor=default;align=center;verticalAlign=middle;fontFamily=Helvetica;fontSize=11;fontColor=default;labelBackgroundColor=default;endArrow=classic;fontStyle=1" parent="1" source="vM2lw-Fl_1fQC05_8at0-22" target="vM2lw-Fl_1fQC05_8at0-3" edge="1">
          <mxGeometry relative="1" as="geometry">
            <Array as="points">
              <mxPoint x="-660" y="90" />
              <mxPoint x="-1610" y="90" />
            </Array>
          </mxGeometry>
        </mxCell>
        <mxCell id="vM2lw-Fl_1fQC05_8at0-85" value="Typing Status" style="edgeLabel;html=1;align=center;verticalAlign=middle;resizable=0;points=[];fontFamily=Helvetica;fontSize=11;fontColor=default;labelBackgroundColor=default;fontStyle=1" parent="vM2lw-Fl_1fQC05_8at0-84" vertex="1" connectable="0">
          <mxGeometry x="0.3568" y="-1" relative="1" as="geometry">
            <mxPoint as="offset" />
          </mxGeometry>
        </mxCell>
        <mxCell id="vM2lw-Fl_1fQC05_8at0-22" value="P5" style="swimlane;html=1;fontStyle=1;childLayout=stackLayout;horizontal=1;startSize=26;fillColor=#e0e0e0;horizontalStack=0;resizeParent=1;resizeLast=0;collapsible=1;marginBottom=0;swimlaneFillColor=#ffffff;align=center;rounded=1;shadow=0;comic=0;labelBackgroundColor=none;strokeWidth=1;fontFamily=Verdana;fontSize=12" parent="1" vertex="1">
          <mxGeometry x="-708" y="140" width="140" height="70" as="geometry" />
        </mxCell>
        <mxCell id="vM2lw-Fl_1fQC05_8at0-23" value="  Real-time Status Management" style="text;html=1;strokeColor=none;fillColor=none;spacingLeft=4;spacingRight=4;whiteSpace=wrap;overflow=hidden;rotatable=0;points=[[0,0.5],[1,0.5]];portConstraint=eastwest;align=center;fontStyle=1" parent="vM2lw-Fl_1fQC05_8at0-22" vertex="1">
          <mxGeometry y="26" width="140" height="44" as="geometry" />
        </mxCell>
        <mxCell id="vM2lw-Fl_1fQC05_8at0-24" value="" style="endArrow=classic;html=1;rounded=1;edgeStyle=orthogonalEdgeStyle;fontStyle=1" parent="1" source="vM2lw-Fl_1fQC05_8at0-3" target="vM2lw-Fl_1fQC05_8at0-1" edge="1">
          <mxGeometry width="50" height="50" relative="1" as="geometry">
            <mxPoint x="-1210" y="311" as="sourcePoint" />
            <mxPoint x="-1160" y="261" as="targetPoint" />
            <Array as="points">
              <mxPoint x="-1730" y="300" />
              <mxPoint x="-2010" y="300" />
            </Array>
          </mxGeometry>
        </mxCell>
        <mxCell id="vM2lw-Fl_1fQC05_8at0-26" value="&lt;strong&gt;Registration Data&lt;/strong&gt; (phone number, username)" style="edgeLabel;html=1;align=center;verticalAlign=middle;resizable=0;points=[];fontStyle=1" parent="vM2lw-Fl_1fQC05_8at0-24" vertex="1" connectable="0">
          <mxGeometry x="0.0668" y="3" relative="1" as="geometry">
            <mxPoint x="27" y="-13" as="offset" />
          </mxGeometry>
        </mxCell>
        <mxCell id="vM2lw-Fl_1fQC05_8at0-27" value="" style="endArrow=classic;html=1;rounded=1;elbow=vertical;edgeStyle=orthogonalEdgeStyle;fontStyle=1" parent="1" source="vM2lw-Fl_1fQC05_8at0-3" target="vM2lw-Fl_1fQC05_8at0-1" edge="1">
          <mxGeometry width="50" height="50" relative="1" as="geometry">
            <mxPoint x="-1520" y="201" as="sourcePoint" />
            <mxPoint x="-1170" y="199" as="targetPoint" />
            <Array as="points">
              <mxPoint x="-1730" y="340" />
              <mxPoint x="-2010" y="340" />
            </Array>
          </mxGeometry>
        </mxCell>
        <mxCell id="vM2lw-Fl_1fQC05_8at0-28" value="&lt;strong&gt;Profile Update Data&lt;/strong&gt; (name, bio, picture)" style="edgeLabel;html=1;align=center;verticalAlign=middle;resizable=0;points=[];fontStyle=1" parent="vM2lw-Fl_1fQC05_8at0-27" vertex="1" connectable="0">
          <mxGeometry x="0.0668" y="3" relative="1" as="geometry">
            <mxPoint x="-14" y="-13" as="offset" />
          </mxGeometry>
        </mxCell>
        <mxCell id="vM2lw-Fl_1fQC05_8at0-29" value="" style="endArrow=classic;html=1;rounded=1;edgeStyle=orthogonalEdgeStyle;fontStyle=1" parent="1" source="vM2lw-Fl_1fQC05_8at0-3" edge="1">
          <mxGeometry width="50" height="50" relative="1" as="geometry">
            <mxPoint x="-1711" y="241" as="sourcePoint" />
            <mxPoint x="-2010" y="440" as="targetPoint" />
            <Array as="points">
              <mxPoint x="-1730" y="320" />
              <mxPoint x="-2010" y="320" />
            </Array>
          </mxGeometry>
        </mxCell>
        <mxCell id="vM2lw-Fl_1fQC05_8at0-30" value="Privacy Settings" style="edgeLabel;html=1;align=center;verticalAlign=middle;resizable=0;points=[];fontStyle=1" parent="vM2lw-Fl_1fQC05_8at0-29" vertex="1" connectable="0">
          <mxGeometry x="0.0668" y="3" relative="1" as="geometry">
            <mxPoint x="-8" y="-13" as="offset" />
          </mxGeometry>
        </mxCell>
        <mxCell id="vM2lw-Fl_1fQC05_8at0-31" value="" style="endArrow=classic;html=1;rounded=1;edgeStyle=orthogonalEdgeStyle;fontStyle=1" parent="1" source="vM2lw-Fl_1fQC05_8at0-3" target="vM2lw-Fl_1fQC05_8at0-16" edge="1">
          <mxGeometry width="50" height="50" relative="1" as="geometry">
            <mxPoint x="-1520" y="226" as="sourcePoint" />
            <mxPoint x="-1170" y="225" as="targetPoint" />
            <Array as="points">
              <mxPoint x="-1700" y="380" />
              <mxPoint x="-1430" y="380" />
            </Array>
          </mxGeometry>
        </mxCell>
        <mxCell id="vM2lw-Fl_1fQC05_8at0-32" value="&lt;strong&gt;Chat Creation Request&lt;/strong&gt; (type, members)" style="edgeLabel;html=1;align=center;verticalAlign=middle;resizable=0;points=[];fontStyle=1" parent="vM2lw-Fl_1fQC05_8at0-31" vertex="1" connectable="0">
          <mxGeometry x="0.0668" y="3" relative="1" as="geometry">
            <mxPoint x="55" y="-1" as="offset" />
          </mxGeometry>
        </mxCell>
        <mxCell id="vM2lw-Fl_1fQC05_8at0-34" value="" style="endArrow=classic;html=1;rounded=1;edgeStyle=orthogonalEdgeStyle;fontStyle=1" parent="1" source="vM2lw-Fl_1fQC05_8at0-3" target="vM2lw-Fl_1fQC05_8at0-16" edge="1">
          <mxGeometry width="50" height="50" relative="1" as="geometry">
            <mxPoint x="-1600" y="239" as="sourcePoint" />
            <mxPoint x="-1180" y="291" as="targetPoint" />
            <Array as="points">
              <mxPoint x="-1700" y="400" />
              <mxPoint x="-1430" y="400" />
            </Array>
          </mxGeometry>
        </mxCell>
        <mxCell id="vM2lw-Fl_1fQC05_8at0-35" value="&lt;strong&gt;Member Management Commands&lt;/strong&gt; (add/remove)" style="edgeLabel;html=1;align=center;verticalAlign=middle;resizable=0;points=[];fontStyle=1" parent="vM2lw-Fl_1fQC05_8at0-34" vertex="1" connectable="0">
          <mxGeometry x="0.0668" y="3" relative="1" as="geometry">
            <mxPoint x="85" as="offset" />
          </mxGeometry>
        </mxCell>
        <mxCell id="vM2lw-Fl_1fQC05_8at0-37" value="" style="endArrow=classic;html=1;rounded=1;edgeStyle=orthogonalEdgeStyle;fontStyle=1" parent="1" source="vM2lw-Fl_1fQC05_8at0-3" target="vM2lw-Fl_1fQC05_8at0-16" edge="1">
          <mxGeometry width="50" height="50" relative="1" as="geometry">
            <mxPoint x="-1660" y="337" as="sourcePoint" />
            <mxPoint x="-1180" y="389" as="targetPoint" />
            <Array as="points">
              <mxPoint x="-1700" y="360" />
              <mxPoint x="-1430" y="360" />
            </Array>
          </mxGeometry>
        </mxCell>
        <mxCell id="vM2lw-Fl_1fQC05_8at0-38" value="&lt;strong&gt;Chat Creation Request&lt;/strong&gt; (type, members)" style="edgeLabel;html=1;align=center;verticalAlign=middle;resizable=0;points=[];fontStyle=1" parent="vM2lw-Fl_1fQC05_8at0-37" vertex="1" connectable="0">
          <mxGeometry x="0.0668" y="3" relative="1" as="geometry">
            <mxPoint x="35" y="1" as="offset" />
          </mxGeometry>
        </mxCell>
        <mxCell id="vM2lw-Fl_1fQC05_8at0-40" value="" style="endArrow=classic;html=1;rounded=1;edgeStyle=orthogonalEdgeStyle;fontStyle=1" parent="1" source="vM2lw-Fl_1fQC05_8at0-3" target="vM2lw-Fl_1fQC05_8at0-18" edge="1">
          <mxGeometry width="50" height="50" relative="1" as="geometry">
            <mxPoint x="-1600" y="251" as="sourcePoint" />
            <mxPoint x="-1350" y="470" as="targetPoint" />
            <Array as="points">
              <mxPoint x="-1670" y="300" />
              <mxPoint x="-1190" y="300" />
            </Array>
          </mxGeometry>
        </mxCell>
        <mxCell id="vM2lw-Fl_1fQC05_8at0-41" value="&lt;strong&gt;Message Content&lt;/strong&gt; (text)" style="edgeLabel;html=1;align=center;verticalAlign=middle;resizable=0;points=[];fontStyle=1" parent="vM2lw-Fl_1fQC05_8at0-40" vertex="1" connectable="0">
          <mxGeometry x="0.0668" y="3" relative="1" as="geometry">
            <mxPoint x="-72" y="-4" as="offset" />
          </mxGeometry>
        </mxCell>
        <mxCell id="vM2lw-Fl_1fQC05_8at0-42" value="" style="endArrow=classic;html=1;rounded=1;edgeStyle=orthogonalEdgeStyle;fontStyle=1" parent="1" source="vM2lw-Fl_1fQC05_8at0-3" target="vM2lw-Fl_1fQC05_8at0-18" edge="1">
          <mxGeometry width="50" height="50" relative="1" as="geometry">
            <mxPoint x="-1600" y="214.5" as="sourcePoint" />
            <mxPoint x="-1180" y="445.5" as="targetPoint" />
            <Array as="points">
              <mxPoint x="-1670" y="280" />
              <mxPoint x="-1190" y="280" />
            </Array>
          </mxGeometry>
        </mxCell>
        <mxCell id="vM2lw-Fl_1fQC05_8at0-43" value="&lt;strong&gt;Media Files&lt;/strong&gt; (for upload)" style="edgeLabel;html=1;align=center;verticalAlign=middle;resizable=0;points=[];fontStyle=1" parent="vM2lw-Fl_1fQC05_8at0-42" vertex="1" connectable="0">
          <mxGeometry x="0.0668" y="3" relative="1" as="geometry">
            <mxPoint x="-87" y="-4" as="offset" />
          </mxGeometry>
        </mxCell>
        <mxCell id="vM2lw-Fl_1fQC05_8at0-46" style="edgeStyle=orthogonalEdgeStyle;rounded=1;orthogonalLoop=1;jettySize=auto;html=1;curved=0;fontStyle=1" parent="1" source="vM2lw-Fl_1fQC05_8at0-3" target="vM2lw-Fl_1fQC05_8at0-20" edge="1">
          <mxGeometry relative="1" as="geometry">
            <mxPoint x="-1580" y="220" as="sourcePoint" />
            <Array as="points">
              <mxPoint x="-1640" y="190" />
              <mxPoint x="-940" y="190" />
            </Array>
          </mxGeometry>
        </mxCell>
        <mxCell id="vM2lw-Fl_1fQC05_8at0-47" value="&lt;strong&gt;Add Contact Request&lt;/strong&gt;" style="edgeLabel;html=1;align=center;verticalAlign=middle;resizable=0;points=[];fontFamily=Helvetica;fontSize=11;fontColor=default;labelBackgroundColor=default;fontStyle=1" parent="vM2lw-Fl_1fQC05_8at0-46" vertex="1" connectable="0">
          <mxGeometry x="-0.4658" y="2" relative="1" as="geometry">
            <mxPoint x="90" y="-7" as="offset" />
          </mxGeometry>
        </mxCell>
        <mxCell id="vM2lw-Fl_1fQC05_8at0-50" style="edgeStyle=orthogonalEdgeStyle;shape=connector;curved=0;rounded=1;orthogonalLoop=1;jettySize=auto;html=1;strokeColor=default;align=center;verticalAlign=middle;fontFamily=Helvetica;fontSize=11;fontColor=default;labelBackgroundColor=default;endArrow=classic;fontStyle=1" parent="1" source="vM2lw-Fl_1fQC05_8at0-1" target="vM2lw-Fl_1fQC05_8at0-3" edge="1">
          <mxGeometry relative="1" as="geometry">
            <Array as="points">
              <mxPoint x="-1960" y="360" />
              <mxPoint x="-1720" y="360" />
            </Array>
          </mxGeometry>
        </mxCell>
        <mxCell id="vM2lw-Fl_1fQC05_8at0-51" value="&lt;strong&gt;Authentication Response&lt;/strong&gt; (success, tokens)" style="edgeLabel;html=1;align=center;verticalAlign=middle;resizable=0;points=[];fontFamily=Helvetica;fontSize=11;fontColor=default;labelBackgroundColor=default;fontStyle=1" parent="vM2lw-Fl_1fQC05_8at0-50" vertex="1" connectable="0">
          <mxGeometry x="-0.2262" relative="1" as="geometry">
            <mxPoint x="-16" y="-8" as="offset" />
          </mxGeometry>
        </mxCell>
        <mxCell id="vM2lw-Fl_1fQC05_8at0-60" style="edgeStyle=orthogonalEdgeStyle;shape=connector;curved=0;rounded=1;orthogonalLoop=1;jettySize=auto;html=1;strokeColor=default;align=center;verticalAlign=middle;fontFamily=Helvetica;fontSize=11;fontColor=default;labelBackgroundColor=default;endArrow=classic;fontStyle=1" parent="1" source="vM2lw-Fl_1fQC05_8at0-16" target="vM2lw-Fl_1fQC05_8at0-3" edge="1">
          <mxGeometry relative="1" as="geometry">
            <Array as="points">
              <mxPoint x="-1410" y="340" />
              <mxPoint x="-1690" y="340" />
            </Array>
          </mxGeometry>
        </mxCell>
        <mxCell id="vM2lw-Fl_1fQC05_8at0-61" value="&lt;strong&gt;Chat Confirmation&lt;/strong&gt; (ID, details)" style="edgeLabel;html=1;align=center;verticalAlign=middle;resizable=0;points=[];fontFamily=Helvetica;fontSize=11;fontColor=default;labelBackgroundColor=default;fontStyle=1" parent="vM2lw-Fl_1fQC05_8at0-60" vertex="1" connectable="0">
          <mxGeometry x="-0.1075" y="-1" relative="1" as="geometry">
            <mxPoint as="offset" />
          </mxGeometry>
        </mxCell>
        <mxCell id="vM2lw-Fl_1fQC05_8at0-66" style="edgeStyle=orthogonalEdgeStyle;shape=connector;curved=0;rounded=1;orthogonalLoop=1;jettySize=auto;html=1;entryX=0.583;entryY=0.96;entryDx=0;entryDy=0;entryPerimeter=0;strokeColor=default;align=center;verticalAlign=middle;fontFamily=Helvetica;fontSize=11;fontColor=default;labelBackgroundColor=default;endArrow=classic;fontStyle=1" parent="1" source="vM2lw-Fl_1fQC05_8at0-18" target="vM2lw-Fl_1fQC05_8at0-3" edge="1">
          <mxGeometry relative="1" as="geometry">
            <Array as="points">
              <mxPoint x="-1170" y="260" />
              <mxPoint x="-1660" y="260" />
            </Array>
          </mxGeometry>
        </mxCell>
        <mxCell id="vM2lw-Fl_1fQC05_8at0-67" value="&lt;strong&gt;Message Content&lt;/strong&gt; (incoming)" style="edgeLabel;html=1;align=center;verticalAlign=middle;resizable=0;points=[];fontFamily=Helvetica;fontSize=11;fontColor=default;labelBackgroundColor=default;fontStyle=1" parent="vM2lw-Fl_1fQC05_8at0-66" vertex="1" connectable="0">
          <mxGeometry x="0.1049" y="-2" relative="1" as="geometry">
            <mxPoint as="offset" />
          </mxGeometry>
        </mxCell>
        <mxCell id="njSY2W3RtdZkCtOm6_0E-5" style="edgeStyle=orthogonalEdgeStyle;rounded=1;orthogonalLoop=1;jettySize=auto;html=1;curved=0;fontStyle=1" parent="1" source="vM2lw-Fl_1fQC05_8at0-23" target="vM2lw-Fl_1fQC05_8at0-14" edge="1">
          <mxGeometry relative="1" as="geometry">
            <Array as="points">
              <mxPoint x="-620" y="690" />
              <mxPoint x="-920" y="690" />
            </Array>
          </mxGeometry>
        </mxCell>
        <mxCell id="njSY2W3RtdZkCtOm6_0E-6" value="notification data (recipient, message)" style="edgeLabel;html=1;align=center;verticalAlign=middle;resizable=0;points=[];fontFamily=Helvetica;fontSize=11;fontColor=default;labelBackgroundColor=default;fontStyle=1" parent="njSY2W3RtdZkCtOm6_0E-5" vertex="1" connectable="0">
          <mxGeometry x="0.1525" y="-6" relative="1" as="geometry">
            <mxPoint x="-113" as="offset" />
          </mxGeometry>
        </mxCell>
        <mxCell id="njSY2W3RtdZkCtOm6_0E-9" style="edgeStyle=orthogonalEdgeStyle;shape=connector;curved=0;rounded=1;orthogonalLoop=1;jettySize=auto;html=1;strokeColor=default;align=center;verticalAlign=middle;fontFamily=Helvetica;fontSize=11;fontColor=default;labelBackgroundColor=default;endArrow=classic;fontStyle=1" parent="1" source="vM2lw-Fl_1fQC05_8at0-19" target="vM2lw-Fl_1fQC05_8at0-12" edge="1">
          <mxGeometry relative="1" as="geometry">
            <Array as="points">
              <mxPoint x="-1120" y="670" />
              <mxPoint x="-1450" y="670" />
            </Array>
          </mxGeometry>
        </mxCell>
        <mxCell id="njSY2W3RtdZkCtOm6_0E-10" value="raw &lt;strong&gt;Media Files&lt;/strong&gt;" style="edgeLabel;html=1;align=center;verticalAlign=middle;resizable=0;points=[];fontFamily=Helvetica;fontSize=11;fontColor=default;labelBackgroundColor=default;fontStyle=1" parent="njSY2W3RtdZkCtOm6_0E-9" vertex="1" connectable="0">
          <mxGeometry x="0.1526" y="-5" relative="1" as="geometry">
            <mxPoint as="offset" />
          </mxGeometry>
        </mxCell>
        <mxCell id="njSY2W3RtdZkCtOm6_0E-15" value="" style="endArrow=classic;startArrow=classic;html=1;rounded=1;strokeColor=default;align=center;verticalAlign=middle;fontFamily=Helvetica;fontSize=11;fontColor=default;labelBackgroundColor=default;edgeStyle=orthogonalEdgeStyle;elbow=vertical;fontStyle=1" parent="1" source="vM2lw-Fl_1fQC05_8at0-1" target="vM2lw-Fl_1fQC05_8at0-6" edge="1">
          <mxGeometry width="50" height="50" relative="1" as="geometry">
            <mxPoint x="-1000.5699999999999" y="620" as="sourcePoint" />
            <mxPoint x="-950.5699999999999" y="570" as="targetPoint" />
            <Array as="points">
              <mxPoint x="-1130" y="586" />
              <mxPoint x="-1130" y="590" />
            </Array>
          </mxGeometry>
        </mxCell>
        <mxCell id="njSY2W3RtdZkCtOm6_0E-16" value="Read/Write User Profiles" style="edgeLabel;html=1;align=center;verticalAlign=middle;resizable=0;points=[];fontFamily=Helvetica;fontSize=11;fontColor=default;labelBackgroundColor=default;fontStyle=1" parent="njSY2W3RtdZkCtOm6_0E-15" vertex="1" connectable="0">
          <mxGeometry x="0.378" y="1" relative="1" as="geometry">
            <mxPoint as="offset" />
          </mxGeometry>
        </mxCell>
        <mxCell id="njSY2W3RtdZkCtOm6_0E-17" value="" style="endArrow=classic;startArrow=classic;html=1;rounded=1;strokeColor=default;align=center;verticalAlign=middle;fontFamily=Helvetica;fontSize=11;fontColor=default;labelBackgroundColor=default;edgeStyle=orthogonalEdgeStyle;fontStyle=1" parent="1" edge="1">
          <mxGeometry width="50" height="50" relative="1" as="geometry">
            <mxPoint x="-1890" y="604.9577677224734" as="sourcePoint" />
            <mxPoint x="-370" y="604.0407239819006" as="targetPoint" />
          </mxGeometry>
        </mxCell>
        <mxCell id="njSY2W3RtdZkCtOm6_0E-18" value="Read/Write User Settings" style="edgeLabel;html=1;align=center;verticalAlign=middle;resizable=0;points=[];fontFamily=Helvetica;fontSize=11;fontColor=default;labelBackgroundColor=default;fontStyle=1" parent="njSY2W3RtdZkCtOm6_0E-17" vertex="1" connectable="0">
          <mxGeometry x="0.378" y="1" relative="1" as="geometry">
            <mxPoint as="offset" />
          </mxGeometry>
        </mxCell>
        <mxCell id="njSY2W3RtdZkCtOm6_0E-19" value="" style="endArrow=classic;startArrow=classic;html=1;rounded=1;strokeColor=default;align=center;verticalAlign=middle;fontFamily=Helvetica;fontSize=11;fontColor=default;labelBackgroundColor=default;edgeStyle=orthogonalEdgeStyle;elbow=vertical;fontStyle=1" parent="1" source="vM2lw-Fl_1fQC05_8at0-1" target="vM2lw-Fl_1fQC05_8at0-11" edge="1">
          <mxGeometry width="50" height="50" relative="1" as="geometry">
            <mxPoint x="-1880" y="561" as="sourcePoint" />
            <mxPoint x="-360" y="560" as="targetPoint" />
            <Array as="points">
              <mxPoint x="-940" y="570" />
              <mxPoint x="-940" y="520" />
            </Array>
          </mxGeometry>
        </mxCell>
        <mxCell id="njSY2W3RtdZkCtOm6_0E-20" value="Read/Write Session Information" style="edgeLabel;html=1;align=center;verticalAlign=middle;resizable=0;points=[];fontFamily=Helvetica;fontSize=11;fontColor=default;labelBackgroundColor=default;fontStyle=1" parent="njSY2W3RtdZkCtOm6_0E-19" vertex="1" connectable="0">
          <mxGeometry x="0.378" y="1" relative="1" as="geometry">
            <mxPoint x="50" as="offset" />
          </mxGeometry>
        </mxCell>
        <mxCell id="njSY2W3RtdZkCtOm6_0E-23" style="edgeStyle=orthogonalEdgeStyle;shape=connector;curved=0;rounded=1;orthogonalLoop=1;jettySize=auto;html=1;strokeColor=default;align=center;verticalAlign=middle;fontFamily=Helvetica;fontSize=11;fontColor=default;labelBackgroundColor=default;endArrow=classic;startArrow=classic;startFill=1;fontStyle=1" parent="1" source="vM2lw-Fl_1fQC05_8at0-17" target="vM2lw-Fl_1fQC05_8at0-7" edge="1">
          <mxGeometry relative="1" as="geometry">
            <Array as="points">
              <mxPoint x="-940" y="499" />
              <mxPoint x="-940" y="480" />
            </Array>
          </mxGeometry>
        </mxCell>
        <mxCell id="njSY2W3RtdZkCtOm6_0E-24" value="Read/Write Chat Records" style="edgeLabel;html=1;align=center;verticalAlign=middle;resizable=0;points=[];fontFamily=Helvetica;fontSize=11;fontColor=default;labelBackgroundColor=default;fontStyle=1" parent="njSY2W3RtdZkCtOm6_0E-23" vertex="1" connectable="0">
          <mxGeometry x="0.0559" y="-6" relative="1" as="geometry">
            <mxPoint x="1" y="-10" as="offset" />
          </mxGeometry>
        </mxCell>
        <mxCell id="njSY2W3RtdZkCtOm6_0E-31" style="edgeStyle=orthogonalEdgeStyle;shape=connector;curved=0;rounded=1;orthogonalLoop=1;jettySize=auto;html=1;strokeColor=default;align=center;verticalAlign=middle;fontFamily=Helvetica;fontSize=11;fontColor=default;labelBackgroundColor=default;startArrow=classic;startFill=1;endArrow=classic;fontStyle=1" parent="1" source="vM2lw-Fl_1fQC05_8at0-19" target="vM2lw-Fl_1fQC05_8at0-8" edge="1">
          <mxGeometry relative="1" as="geometry">
            <Array as="points">
              <mxPoint x="-710" y="389" />
              <mxPoint x="-710" y="400" />
            </Array>
          </mxGeometry>
        </mxCell>
        <mxCell id="njSY2W3RtdZkCtOm6_0E-32" value="Read/Update Message Status" style="edgeLabel;html=1;align=center;verticalAlign=middle;resizable=0;points=[];fontFamily=Helvetica;fontSize=11;fontColor=default;labelBackgroundColor=default;fontStyle=1" parent="njSY2W3RtdZkCtOm6_0E-31" vertex="1" connectable="0">
          <mxGeometry x="-0.3758" y="-4" relative="1" as="geometry">
            <mxPoint as="offset" />
          </mxGeometry>
        </mxCell>
        <mxCell id="njSY2W3RtdZkCtOm6_0E-39" style="edgeStyle=orthogonalEdgeStyle;shape=connector;curved=0;rounded=1;orthogonalLoop=1;jettySize=auto;html=1;strokeColor=default;align=center;verticalAlign=middle;fontFamily=Helvetica;fontSize=11;fontColor=default;labelBackgroundColor=default;startArrow=classic;startFill=1;endArrow=classic;fontStyle=1" parent="1" source="vM2lw-Fl_1fQC05_8at0-21" target="vM2lw-Fl_1fQC05_8at0-10" edge="1">
          <mxGeometry relative="1" as="geometry">
            <Array as="points">
              <mxPoint x="-590" y="280" />
              <mxPoint x="-590" y="270" />
            </Array>
          </mxGeometry>
        </mxCell>
        <mxCell id="njSY2W3RtdZkCtOm6_0E-41" value="Read/Write Contact List" style="edgeLabel;html=1;align=center;verticalAlign=middle;resizable=0;points=[];fontFamily=Helvetica;fontSize=11;fontColor=default;labelBackgroundColor=default;fontStyle=1" parent="njSY2W3RtdZkCtOm6_0E-39" vertex="1" connectable="0">
          <mxGeometry x="-0.6254" y="3" relative="1" as="geometry">
            <mxPoint as="offset" />
          </mxGeometry>
        </mxCell>
        <mxCell id="njSY2W3RtdZkCtOm6_0E-47" style="edgeStyle=orthogonalEdgeStyle;shape=connector;curved=0;rounded=1;orthogonalLoop=1;jettySize=auto;html=1;strokeColor=default;align=center;verticalAlign=middle;fontFamily=Helvetica;fontSize=11;fontColor=default;labelBackgroundColor=default;startArrow=classic;startFill=1;endArrow=none;endFill=0;fontStyle=1" parent="1" source="vM2lw-Fl_1fQC05_8at0-23" target="vM2lw-Fl_1fQC05_8at0-6" edge="1">
          <mxGeometry relative="1" as="geometry">
            <Array as="points">
              <mxPoint x="-430" y="210" />
              <mxPoint x="-430" y="585" />
            </Array>
          </mxGeometry>
        </mxCell>
        <mxCell id="njSY2W3RtdZkCtOm6_0E-48" value="Read User Information" style="edgeLabel;html=1;align=center;verticalAlign=middle;resizable=0;points=[];fontFamily=Helvetica;fontSize=11;fontColor=default;labelBackgroundColor=default;fontStyle=1" parent="njSY2W3RtdZkCtOm6_0E-47" vertex="1" connectable="0">
          <mxGeometry x="-0.9126" y="3" relative="1" as="geometry">
            <mxPoint x="42" y="-5" as="offset" />
          </mxGeometry>
        </mxCell>
      </root>
    </mxGraphModel>
  </diagram>
</mxfile>
